<svg viewBox="0 0 200 200" xmlns="http://www.w3.org/2000/svg">
  <!-- Background glow -->
  <defs>
    <radialGradient id="glow" cx="50%" cy="50%" r="50%" fx="50%" fy="50%">
      <stop offset="0%" stop-color="#8B5CF6" stop-opacity="0.6" />
      <stop offset="100%" stop-color="#8B5CF6" stop-opacity="0" />
    </radialGradient>
    <filter id="blur-effect" x="-50%" y="-50%" width="200%" height="200%">
      <feGaussianBlur stdDeviation="6" />
    </filter>
    <!-- Circuit-like patterns -->
    <pattern id="circuitPattern" patternUnits="userSpaceOnUse" width="60" height="60" patternTransform="rotate(45)">
      <path d="M10 10 L50 10 M30 10 L30 50 M10 30 L50 30" stroke="#8B5CF6" stroke-width="1" stroke-opacity="0.3" fill="none" />
      <circle cx="10" cy="10" r="2" fill="#8B5CF6" fill-opacity="0.4" />
      <circle cx="30" cy="10" r="2" fill="#8B5CF6" fill-opacity="0.4" />
      <circle cx="10" cy="30" r="2" fill="#8B5CF6" fill-opacity="0.4" />
      <circle cx="30" cy="30" r="2" fill="#8B5CF6" fill-opacity="0.4" />
    </pattern>
  </defs>

  <!-- Background circuit pattern -->
  <circle cx="100" cy="100" r="90" fill="url(#circuitPattern)" />
  
  <!-- Glow effect -->
  <circle cx="100" cy="100" r="75" fill="url(#glow)" filter="url(#blur-effect)" />

  <!-- Robot body (rounded rectangle) -->
  <rect x="65" y="75" width="70" height="80" rx="25" ry="25" fill="#4F46E5" />
  
  <!-- Robot head -->
  <circle cx="100" cy="65" r="30" fill="#4F46E5" />
  
  <!-- Robot face -->
  <g id="face">
    <!-- Eyes -->
    <circle cx="85" cy="60" r="8" fill="white" />
    <circle cx="115" cy="60" r="8" fill="white" />
    
    <!-- Eye pupils - animated -->
    <circle cx="85" cy="60" r="4" fill="#111827">
      <animate attributeName="cy" values="60;58;60;62;60" dur="3s" repeatCount="indefinite" />
    </circle>
    <circle cx="115" cy="60" r="4" fill="#111827">
      <animate attributeName="cy" values="60;58;60;62;60" dur="3s" repeatCount="indefinite" />
    </circle>
    
    <!-- Smile -->
    <path d="M85 80 Q100 95 115 80" stroke="#F5F5F5" stroke-width="3" fill="none" />
  </g>
  
  <!-- Antenna -->
  <line x1="100" y1="35" x2="100" y2="25" stroke="#4F46E5" stroke-width="4" />
  <circle cx="100" cy="20" r="5" fill="#8B5CF6">
    <animate attributeName="opacity" values="0.6;1;0.6" dur="2s" repeatCount="indefinite" />
  </circle>
  
  <!-- Code window on chest -->
  <rect x="75" y="95" width="50" height="30" rx="4" ry="4" fill="#111827" />
  
  <!-- Code lines -->
  <line x1="80" y1="103" x2="100" y2="103" stroke="#8B5CF6" stroke-width="2" />
  <line x1="80" y1="110" x2="115" y2="110" stroke="#8B5CF6" stroke-width="2" />
  <line x1="80" y1="117" x2="90" y2="117" stroke="#8B5CF6" stroke-width="2" />
  
  <!-- Particles around robot to represent "context searching" -->
  <g>
    <circle cx="50" cy="80" r="3" fill="#F472B6">
      <animate attributeName="opacity" values="0.2;0.8;0.2" dur="3s" repeatCount="indefinite" />
    </circle>
    <circle cx="140" cy="70" r="2" fill="#F472B6">
      <animate attributeName="opacity" values="0.8;0.2;0.8" dur="2.5s" repeatCount="indefinite" />
    </circle>
    <circle cx="45" cy="120" r="2" fill="#F472B6">
      <animate attributeName="opacity" values="0.5;0.9;0.5" dur="4s" repeatCount="indefinite" />
    </circle>
    <circle cx="150" cy="110" r="3" fill="#F472B6">
      <animate attributeName="opacity" values="0.3;0.7;0.3" dur="3.5s" repeatCount="indefinite" />
    </circle>
  </g>
  
  <!-- Connecting lines representing context vectors -->
  <g stroke="#F472B6" stroke-width="1" opacity="0.6">
    <line x1="53" y1="80" x2="65" y2="85">
      <animate attributeName="opacity" values="0.2;0.6;0.2" dur="3s" repeatCount="indefinite" />
    </line>
    <line x1="138" y1="70" x2="120" y2="78">
      <animate attributeName="opacity" values="0.6;0.2;0.6" dur="2.5s" repeatCount="indefinite" />
    </line>
    <line x1="47" y1="120" x2="65" y2="110">
      <animate attributeName="opacity" values="0.3;0.7;0.3" dur="4s" repeatCount="indefinite" />
    </line>
    <line x1="147" y1="110" x2="135" y2="106">
      <animate attributeName="opacity" values="0.5;0.1;0.5" dur="3.5s" repeatCount="indefinite" />
    </line>
  </g>
  
  <!-- Hand with document (representing meeting summaries) -->
  <g transform="translate(50, 135) rotate(-15)">
    <rect width="20" height="25" rx="2" ry="2" fill="#F5F5F5" />
    <line x1="4" y1="5" x2="16" y2="5" stroke="#4F46E5" stroke-width="1" />
    <line x1="4" y1="9" x2="16" y2="9" stroke="#4F46E5" stroke-width="1" />
    <line x1="4" y1="13" x2="12" y2="13" stroke="#4F46E5" stroke-width="1" />
  </g>
  
  <!-- Robot arm (left) -->
  <path d="M65 100 C55 105, 45 125, 52 135" stroke="#4F46E5" stroke-width="8" stroke-linecap="round" fill="none" />
  
  <!-- Robot arm (right) - holding a magnifying glass for code search -->
  <path d="M135 100 C145 105, 152 115, 145 125" stroke="#4F46E5" stroke-width="8" stroke-linecap="round" fill="none" />
  
  <!-- Magnifying glass -->
  <g transform="translate(145, 125) rotate(15)">
    <circle cx="0" cy="0" r="12" fill="none" stroke="#F5F5F5" stroke-width="3" />
    <line x1="8" y1="8" x2="15" y2="15" stroke="#F5F5F5" stroke-width="3" stroke-linecap="round" />
    <!-- Code symbol in magnifying glass -->
    <text x="-5" y="3" font-family="monospace" font-size="10" fill="#F5F5F5">&lt;/&gt;</text>
  </g>
</svg>